<?xml version="1.0" encoding="utf-8"?>
<!-- Generator: Adobe Illustrator 24.2.3, SVG Export Plug-In . SVG Version: 6.00 Build 0)  -->
<svg version="1.1" id="Calque_1" xmlns="http://www.w3.org/2000/svg" xmlns:xlink="http://www.w3.org/1999/xlink" x="0px" y="0px"
	 viewBox="0 0 100 125" style="enable-background:new 0 0 100 125;" xml:space="preserve">
<style type="text/css">
	.st0{fill:#FFFFFF;}
</style>
<path class="st0" d="M50,12.7c-16.3,0-29.6,13.3-29.6,29.6c0,8.2,4.4,16.1,7.9,22.4c2,3.6,3.9,6.9,4.1,8.9v18
	c0,9.8,7.9,17.7,17.7,17.7s17.7-7.9,17.7-17.7v-18c0.2-2,2.1-5.4,4.1-8.9c3.5-6.3,7.9-14.2,7.9-22.4C79.6,26,66.3,12.7,50,12.7z
	 M58.5,97.4c-2.1,2.4-5.2,3.9-8.5,3.9c-3.3,0-6.4-1.5-8.5-3.9H58.5z M38.6,89.9v-1h22.8v1c0,0.1,0,0.1,0,0.2H38.6
	C38.6,90.1,38.6,90,38.6,89.9z M61.4,72.6v9.5H38.6v-9.5c-0.2-3-2.2-6.6-4.5-10.7c-3.2-5.7-6.8-12.2-6.8-18.6
	c0-12.5,10.1-22.7,22.7-22.7c12.5,0,22.7,10.1,22.7,22.7c0,6.4-3.6,12.9-6.8,18.6C63.6,66,61.6,69.6,61.4,72.6z"/>
</svg>
