<?xml version="1.0" encoding="utf-8"?>
<!-- Generator: Adobe Illustrator 24.2.3, SVG Export Plug-In . SVG Version: 6.00 Build 0)  -->
<svg version="1.1" id="Calque_1" xmlns="http://www.w3.org/2000/svg" xmlns:xlink="http://www.w3.org/1999/xlink" x="0px" y="0px"
	 viewBox="0 0 841.89 595.28" style="enable-background:new 0 0 841.89 595.28;" xml:space="preserve">
<style type="text/css">
	.st0{fill:#CECECE;}
	.st1{display:none;}
	.st2{display:inline;}
	.st3{fill:#B74E21;}
	.st4{display:inline;fill:#EA5B0C;}
	.st5{font-family:'PaytoneOne';}
	.st6{font-size:31.501px;}
	.st7{display:inline;fill:#FFFFFF;}
	.st8{font-size:29.6508px;}
	.st9{fill:#CE5517;}
</style>
<g id="Calque_2_1_">
	<g>
		<path class="st0" d="M244.47,386.21c-1.63,0.29-3.07,0.02-4.31-0.82c-1.25-0.84-2.05-2.29-2.42-4.35l-6.86-38.51l-26.54,4.73
			l7.09,39.77c0.7,3.9,1.81,7.36,3.36,10.37s3.47,5.47,5.76,7.39c2.3,1.91,4.94,3.22,7.93,3.94c0.55,0.13,1.13,0.19,1.71,0.27
			c2.81-1.36,5.79-2.34,8.96-2.91c1.88-0.34,3.59-0.58,5.13-0.71c1.33-0.12,2.61-0.09,3.87-0.02c2.02-1.08,3.97-2.28,5.73-3.81
			l-4.55-17.76C247.72,385.11,246.1,385.92,244.47,386.21z"/>
		<path class="st0" d="M552.21,364c0.99-5.23,2.85-9.27,5.56-12.11c0.92-0.97,1.96-1.76,3.04-2.49l-10.76,1.95L552.21,364z"/>
		<path class="st0" d="M403.83,345.15c-0.06-0.55-0.13-1.12-0.24-1.71c-0.78-4.36-2.11-8.35-4-11.98s-4.3-6.66-7.24-9.1
			s-6.37-4.16-10.29-5.18c-3.92-1.01-8.29-1.09-13.1-0.23c-4.77,0.85-9.11,2.43-13.03,4.75c-3.92,2.33-7.19,5.23-9.8,8.7
			c-2.62,3.48-4.48,7.42-5.56,11.84c-1.08,4.41-1.18,9.13-0.28,14.17c0.62,3.46,1.67,6.65,3.12,9.57l23.87-7.5l36.65-11.72
			C403.92,346.24,403.89,345.71,403.83,345.15z M364.08,346.85c-0.28-1.77-0.32-3.45-0.15-5.06c0.18-1.61,0.58-3.05,1.22-4.31
			c0.64-1.27,1.51-2.32,2.62-3.17s2.44-1.4,3.99-1.68c4.93-0.88,8.59,1.23,10.97,6.35L364.08,346.85z"/>
		<path class="st0" d="M609.74,354.2c-1.46,0.26-2.71,0.79-3.75,1.59s-1.86,1.8-2.46,2.99c-0.6,1.18-0.97,2.54-1.14,4.06
			c-0.16,1.52-0.11,3.11,0.15,4.77l17.54-7.46C617.82,355.34,614.38,353.35,609.74,354.2z"/>
		<path class="st0" d="M595.12,29.33H246.16c-52.04,0-94.23,42.19-94.23,94.23V423.6v48.92c0,52.04,42.19,94.23,94.23,94.23h348.97
			c52.04,0,94.23-42.19,94.23-94.23V326.08l-72.28,13.12c0.79,0.12,1.57,0.25,2.32,0.44c3.7,0.95,6.93,2.56,9.7,4.85
			s5.05,5.14,6.83,8.55c1.79,3.4,3.05,7.16,3.79,11.26c0.1,0.55,0.17,1.09,0.23,1.6c0.06,0.52,0.09,1.03,0.1,1.51l-34.46,11.13
			c1.44,2.68,3.34,4.44,5.71,5.29c2.37,0.86,5.25,0.97,8.62,0.36c5.37-0.97,10.9-3.44,16.6-7.4l5.82,15.76
			c-6.53,4.61-14.25,7.71-23.15,9.33c-4.95,0.89-9.6,0.93-13.97,0.12c-4.37-0.82-8.27-2.35-11.71-4.61
			c-3.44-2.25-6.32-5.15-8.64-8.67c-2.32-3.54-3.89-7.55-4.71-12.05c-0.86-4.74-0.78-9.18,0.23-13.34s2.74-7.87,5.2-11.15
			s5.53-6.02,9.21-8.21c0.67-0.4,1.37-0.75,2.07-1.1l-28.39,5.15l6.5,17.73c-7.48,1.36-12.83,3.17-16.04,5.45
			c-3.21,2.27-4.5,5.21-3.84,8.79l5.7,31.49l-24.85,4.5l-10.72-60.12l0,0c2.13-2.03,2.54-2.47,4.13-4.7
			c1.64-2.29,2.97-4.76,3.66-7.63s0.73-6.01,0.12-9.41c-0.61-3.44-1.72-6.3-3.33-8.59c-1.61-2.29-3.57-4.12-5.9-5.48
			c-2.33-1.36-4.96-2.31-7.89-2.85s-6.05-0.77-9.36-0.7c-0.75,0.05-1.51,0.01-2.29-0.11s-1.51-0.32-2.2-0.61
			c-0.68-0.29-1.25-0.67-1.71-1.12c-0.46-0.46-0.75-1.02-0.87-1.7c-0.31-1.76,2.02-3.09,6.99-3.97c4-0.71,9.22-0.65,15.68,0.19
			l-0.04-15.83c-3.33-0.97-6.78-1.36-10.36-1.18c-3.59,0.19-7.36,0.63-11.31,1.34c-3.79,0.68-7.22,1.68-10.28,3.03
			s-5.62,3.08-7.69,5.2c-2.06,2.12-3.55,4.64-4.46,7.54c-0.91,2.91-1.11,6.27-0.6,10.08c0.59,3.32,1.51,6.1,2.78,8.37
			c1.26,2.26,2.86,4.07,4.78,5.45c1.93,1.36,4.2,2.35,6.81,2.97c2.61,0.61,5.56,0.95,8.86,1.01c1.14,0.01,2.23,0.08,3.28,0.19
			c1.05,0.11,2,0.32,2.86,0.62c0.85,0.31,1.59,0.71,2.21,1.23c0.62,0.52,1.06,1.17,1.32,1.94c0.36,2.01-1.54,3.39-5.7,4.13
			c-0.9,0.16-1.91,0.27-3.03,0.35c-1.12,0.06-2.24,0.11-3.35,0.14c-1.11,0.03-2.15,0.03-3.12,0.01c-0.97-0.03-1.77-0.04-2.41-0.07
			c-0.68,0-1.54-0.07-2.59-0.18s-2.28-0.25-3.7-0.38l-0.17,15.35c2.31,0.6,4.72,0.95,7.22,1.1l-27.98,5.08
			c3.66-1.55,7.11-3.39,10.26-5.6l-6.14-16.76c-6.07,4.2-11.95,6.81-17.66,7.82c-3.59,0.64-6.64,0.5-9.16-0.42
			c-2.52-0.91-4.53-2.79-6.05-5.64l36.65-11.72c-0.01-0.52-0.04-1.05-0.1-1.61c-0.06-0.55-0.13-1.12-0.24-1.71
			c-0.78-4.36-2.11-8.35-4-11.98s-4.3-6.66-7.24-9.1s-6.37-4.16-10.29-5.18c-3.92-1.01-8.29-1.09-13.1-0.23
			c-4.77,0.85-9.11,2.43-13.04,4.75c-3.92,2.33-7.19,5.23-9.8,8.7c-2.62,3.48-4.48,7.42-5.56,11.84c-1.08,4.41-1.18,9.13-0.28,14.17
			c0.85,4.78,2.5,9.06,4.96,12.81c2.45,3.76,5.51,6.84,9.15,9.24c3.64,2.41,7.78,4.05,12.42,4.93c1,0.19,2.02,0.32,3.06,0.43
			l-5.76,1.04l2.6,14.35l-13.57,2.46l3.73,20.6c0.39,2.13,1.34,3.61,2.88,4.43c1.53,0.82,3.45,1.02,5.75,0.6
			c1.8-0.33,3.52-1.12,5.15-2.4l3.99,16.76c-4.83,3.73-10.49,6.18-16.97,7.35c-3.34,0.6-6.41,0.58-9.22-0.07
			c-2.82-0.65-5.3-1.87-7.47-3.66c-2.16-1.79-3.98-4.09-5.44-6.9s-2.53-6.09-3.21-9.84l-3.94-22.4l-7.48,1.36l-2.72-15.03l9.32-1.69
			l3.03-21.67c-6.07,4.2-11.95,6.81-17.66,7.82c-3.59,0.64-6.64,0.5-9.16-0.42c-2.52-0.91-4.53-2.79-6.05-5.64l11.96,59.95
			c0.39,2.17,1.36,3.66,2.89,4.46c1.53,0.8,3.45,1,5.75,0.58c1.77-0.32,3.48-1.12,5.15-2.4l3.99,16.76
			c-4.83,3.73-10.49,6.18-16.97,7.35c-3.34,0.6-6.41,0.58-9.22-0.07s-5.3-1.88-7.47-3.66c-2.17-1.79-3.98-4.09-5.44-6.9
			c-1.46-2.82-2.53-6.09-3.21-9.84l-7.05-36.63l-11.38,2.07l-15.81-88.76l-25.7,8.73l5.79,32.47c-2.95-4.28-6.32-7.12-10.1-8.52
			c-3.79-1.4-8.04-1.68-12.77-0.84c-4.08,0.73-7.81,2.26-11.2,4.62c-3.39,2.35-6.22,5.27-8.5,8.75s-3.89,7.4-4.81,11.76
			c-0.93,4.37-0.97,8.9-0.13,13.59c0.77,4.37,2.3,8.41,4.56,12.14c2.26,3.73,5.02,6.88,8.28,9.46c3.25,2.58,6.9,4.45,10.94,5.62
			c1.6,0.46,3.22,0.73,4.87,0.88l-30.97,5.62c0.82,0.13,1.63,0.21,2.46,0.42c1.5,0.39,3.14,0.92,4.93,1.62l0.62,16.52
			c-4.38-0.59-8.34-0.57-11.87,0.07c-1.8,0.33-3.37,0.92-4.7,1.77c-1.33,0.85-2.41,1.91-3.23,3.16c-0.82,1.25-1.38,2.68-1.66,4.31
			c-0.28,1.62-0.25,3.36,0.08,5.21s0.92,3.49,1.75,4.91s1.86,2.58,3.1,3.51c1.24,0.92,2.65,1.54,4.23,1.86
			c1.58,0.33,3.3,0.32,5.14-0.01c3.49-0.63,7.05-1.97,10.68-4.01l5.37,16.51c-2.67,2.11-5.36,3.68-8.09,4.7
			c-2.73,1.03-5.74,1.83-9.04,2.43c-4.64,0.84-9.05,0.86-13.24,0.08c-4.18-0.8-7.94-2.29-11.27-4.5s-6.14-5.1-8.43-8.66
			c-2.29-3.56-3.86-7.68-4.71-12.38s-0.76-9.13,0.27-13.29s2.76-7.88,5.2-11.15c2.43-3.28,5.45-6.01,9.06-8.22
			c0.55-0.34,1.12-0.62,1.69-0.93L199.38,415V135.68c0-32.53,26.37-58.9,58.9-58.9H583c32.53,0,58.9,26.37,58.9,58.9v199.01
			l47.45-8.61V123.56C689.35,71.52,647.16,29.33,595.12,29.33z M433.66,334.45c-0.28-1.76-0.32-3.45-0.15-5.06
			c0.18-1.61,0.58-3.05,1.22-4.31c0.64-1.27,1.51-2.32,2.62-3.17s2.44-1.4,3.99-1.68c4.93-0.88,8.59,1.23,10.97,6.35L433.66,334.45z
			 M442.58,370.87l27.34-4.96l5.79,32c0.21,1.18,0.63,2.23,1.26,3.14s1.4,1.64,2.32,2.2s1.93,0.94,3.05,1.15
			c1.12,0.2,2.25,0.2,3.4-0.01c1.11-0.2,2.12-0.6,3.02-1.19c0.91-0.59,1.66-1.32,2.25-2.18c0.6-0.86,1.02-1.81,1.27-2.85
			c0.26-1.04,0.28-2.13,0.07-3.27l-5.58-32.05l26.28-4.77l5.63,31.09c0.84,4.66,0.73,9-0.35,13.03c-1.08,4.03-2.93,7.62-5.56,10.77
			s-5.92,5.81-9.9,7.95c-3.97,2.15-8.46,3.68-13.45,4.58c-4.91,0.89-9.64,1.06-14.2,0.5c-4.55-0.56-8.66-1.83-12.33-3.83
			c-3.66-1.98-6.77-4.68-9.3-8.08c-2.53-3.39-4.23-7.47-5.09-12.21L442.58,370.87z M309.87,394.95l-12.88,2.34
			c1.67-0.84,3.2-1.83,4.49-3.02c3-2.76,5.09-6.48,6.28-11.15L309.87,394.95z M281.25,372.19c-0.95-1.43-1.59-3.07-1.92-4.92
			c-0.3-1.72-0.28-3.41,0.07-5.08c0.36-1.66,0.98-3.18,1.87-4.56c0.89-1.36,2.04-2.53,3.45-3.5s3.01-1.61,4.8-1.93
			c1.59-0.28,3.17-0.23,4.76,0.16s3.04,1.04,4.35,1.95c1.32,0.92,2.46,2.07,3.42,3.45c0.96,1.38,1.63,2.91,2.01,4.57l0.09,0.5
			c0.3,1.68,0.27,3.35-0.08,5.02c-0.36,1.66-0.98,3.18-1.87,4.55c-0.89,1.37-2.02,2.55-3.41,3.53c-1.38,0.98-2.95,1.63-4.7,1.94
			c-1.67,0.3-3.32,0.25-4.95-0.13c-1.62-0.38-3.11-1.05-4.46-2C283.34,374.81,282.2,373.62,281.25,372.19z M266.98,402.73
			l26.26-4.77l5.61,31.97c0.21,1.19,0.64,2.23,1.26,3.14c0.62,0.9,1.4,1.63,2.32,2.2c0.92,0.56,1.93,0.94,3.05,1.15
			c1.12,0.2,2.25,0.2,3.4-0.01c1.11-0.2,2.12-0.6,3.02-1.19s1.66-1.32,2.25-2.18c0.6-0.86,1.02-1.81,1.27-2.85
			c0.25-1.05,0.28-2.14,0.07-3.28l-5.61-31.85l26.41-4.71l5.54,30.83c0.84,4.66,0.73,9-0.35,13.03c-1.08,4.03-2.93,7.62-5.55,10.77
			c-2.63,3.15-5.92,5.8-9.9,7.95c-3.97,2.16-8.46,3.68-13.45,4.59c-4.91,0.89-9.64,1.05-14.19,0.5c-4.55-0.56-8.66-1.83-12.33-3.83
			c-3.67-1.98-6.77-4.68-9.3-8.08c-2.53-3.39-4.23-7.46-5.09-12.21L266.98,402.73z"/>
	</g>
	<path class="st0" d="M226.46,316.48c-0.95-1.41-2.14-2.63-3.58-3.64c-1.44-1.02-3.1-1.77-4.97-2.23c-1.87-0.47-3.87-0.52-5.99-0.14
		c-1.83,0.33-3.55,0.96-5.15,1.9c-1.6,0.93-2.95,2.09-4.05,3.48s-1.9,2.95-2.41,4.69c-0.51,1.74-0.6,3.54-0.26,5.43
		c0.33,1.85,1,3.49,2.01,4.93s2.26,2.65,3.74,3.62c1.48,0.97,3.14,1.64,5,2c1.85,0.36,3.77,0.37,5.77,0.01
		c1.83-0.32,3.54-0.96,5.12-1.92c1.57-0.95,2.91-2.12,4.01-3.51c1.1-1.39,1.89-2.95,2.38-4.68c0.49-1.73,0.56-3.56,0.22-5.49
		C228.02,319.37,227.41,317.89,226.46,316.48z"/>
	<polygon class="st0" points="342.22,298.55 352.39,311.02 391.02,286.35 374.2,265.58 	"/>
</g>
<g id="Calque_5" class="st1">
	<g class="st2">
		<path class="st3" d="M462.63,233.38h-83.98c-12.52,0-22.68,10.15-22.68,22.68v72.21v11.77c0,12.52,10.15,22.68,22.68,22.68h83.98
			c12.52,0,22.68-10.15,22.68-22.68V304.8l-39.49,7.17l0,0c0.63-0.35,0.57-0.6,1-1.13c0.42-0.53,0.71-1.15,0.88-1.84
			s0.17-1.45,0.03-2.26c-0.15-0.83-0.41-1.52-0.8-2.07c-0.39-0.55-0.86-0.99-1.42-1.32c-0.56-0.33-1.19-0.56-1.9-0.69
			s-1.46-0.19-2.25-0.17c-0.18,0.01-0.36,0-0.55-0.03s-0.36-0.08-0.53-0.15c-0.16-0.07-0.3-0.16-0.41-0.27
			c-0.11-0.11-0.18-0.25-0.21-0.41c-0.08-0.42,0.49-0.74,1.68-0.96c0.96-0.17,2.22-0.16,3.77,0.05l-0.01-3.81
			c-0.8-0.23-1.63-0.33-2.49-0.28c-0.86,0.04-1.77,0.15-2.72,0.32c-0.91,0.16-1.74,0.41-2.47,0.73c-0.74,0.32-1.35,0.74-1.85,1.25
			s-0.85,1.12-1.07,1.82s-0.27,1.51-0.14,2.42c0.14,0.8,0.36,1.47,0.67,2.01c0.3,0.54,0.69,0.98,1.15,1.31s1.01,0.57,1.64,0.72
			s1.34,0.23,2.13,0.24c0.27,0,0.54,0.02,0.79,0.05s0.48,0.08,0.69,0.15s0.38,0.17,0.53,0.3c0.15,0.13,0.25,0.28,0.32,0.47
			c0.09,0.48-0.37,0.82-1.37,0.99c-0.22,0.04-0.46,0.07-0.73,0.08c-0.27,0.02-0.54,0.03-0.81,0.03c-0.27,0.01-0.52,0.01-0.75,0
			s-0.43-0.01-0.58-0.02c-0.16,0-0.37-0.02-0.62-0.04c-0.25-0.03-0.55-0.06-0.89-0.09l-0.04,3.69c0.56,0.14,1.14,0.23,1.74,0.26
			l-6.73,1.22c0.88-0.37,1.71-0.82,2.47-1.35l-1.48-4.03c-1.46,1.01-2.88,1.64-4.25,1.88c-0.86,0.15-1.6,0.12-2.2-0.1
			c-0.61-0.22-1.09-0.67-1.46-1.36l8.82-2.82c0-0.12-0.01-0.25-0.02-0.39c-0.01-0.13-0.03-0.27-0.06-0.41
			c-0.19-1.05-0.51-2.01-0.96-2.88c-0.45-0.87-1.04-1.6-1.74-2.19c-0.71-0.59-1.53-1-2.48-1.25c-0.94-0.24-2-0.26-3.15-0.05
			c-1.15,0.2-2.19,0.59-3.14,1.14c-0.94,0.56-1.73,1.26-2.36,2.09c-0.63,0.84-1.08,1.79-1.34,2.85s-0.28,2.2-0.07,3.41
			c0.21,1.15,0.6,2.18,1.19,3.08c0.59,0.91,1.33,1.65,2.2,2.22c0.88,0.58,1.87,0.97,2.99,1.19c0.24,0.05,0.49,0.08,0.74,0.1
			l-10.65,1.93c0.96-0.39,1.85-0.87,2.67-1.44l-1.48-4.03c-1.46,1.01-2.88,1.64-4.25,1.88c-0.86,0.15-1.6,0.12-2.2-0.1
			c-0.61-0.22-1.09-0.67-1.46-1.36l8.82-2.82c0-0.12-0.01-0.25-0.02-0.39c-0.01-0.13-0.03-0.27-0.06-0.41
			c-0.19-1.05-0.51-2.01-0.96-2.88c-0.45-0.87-1.04-1.6-1.74-2.19c-0.71-0.59-1.53-1-2.48-1.25c-0.94-0.24-2-0.26-3.15-0.05
			c-1.15,0.2-2.19,0.59-3.14,1.14c-0.94,0.56-1.73,1.26-2.36,2.09c-0.63,0.84-1.08,1.79-1.34,2.85s-0.28,2.2-0.07,3.41
			c0.21,1.15,0.6,2.18,1.19,3.08c0.59,0.91,1.33,1.65,2.2,2.22c0.88,0.58,1.87,0.97,2.99,1.19c0.31,0.06,0.62,0.1,0.93,0.12
			l-8.29,1.5l-3.81-21.36l-6.18,2.1l1.39,7.81c-0.71-1.03-1.52-1.71-2.43-2.05s-1.93-0.41-3.07-0.2c-0.98,0.17-1.88,0.54-2.69,1.11
			c-0.82,0.57-1.5,1.27-2.05,2.11s-0.94,1.78-1.16,2.83s-0.23,2.14-0.03,3.27c0.19,1.05,0.55,2.02,1.1,2.92
			c0.54,0.9,1.21,1.66,1.99,2.28s1.66,1.07,2.63,1.35c0.38,0.11,0.78,0.17,1.17,0.21l-8.63,1.57c0.7-0.31,1.36-0.7,1.94-1.21
			l-1.09-4.27c-0.39,0.32-0.78,0.51-1.17,0.58c-0.39,0.07-0.74,0-1.04-0.2c-0.3-0.2-0.49-0.55-0.58-1.05l-1.65-9.27l-6.39,1.14
			l1.7,9.57c0.17,0.94,0.44,1.77,0.81,2.5s0.84,1.32,1.39,1.78c0.55,0.46,1.19,0.77,1.91,0.95c0.23,0.05,0.46,0.09,0.7,0.11
			l-7.71,1.4v-67.22c0-7.83,6.35-14.17,14.17-14.17h78.15c7.83,0,14.17,6.35,14.17,14.17v47.89l11.42-2.07V256
			C485.31,243.53,475.15,233.38,462.63,233.38z M423.77,306.81c-0.07-0.42-0.08-0.83-0.04-1.22c0.04-0.39,0.14-0.73,0.29-1.04
			c0.15-0.3,0.36-0.56,0.63-0.76c0.27-0.2,0.59-0.34,0.96-0.4c1.19-0.21,2.07,0.3,2.64,1.53L423.77,306.81z M407.03,309.79
			c-0.07-0.42-0.08-0.83-0.04-1.22c0.04-0.39,0.14-0.73,0.29-1.04c0.15-0.3,0.36-0.56,0.63-0.76c0.27-0.2,0.59-0.34,0.96-0.4
			c1.19-0.21,2.07,0.3,2.64,1.53L407.03,309.79z M393.98,321.37l-3.1,0.56c0.4-0.2,0.77-0.44,1.08-0.73
			c0.72-0.66,1.23-1.56,1.51-2.68L393.98,321.37z M387.09,315.89c-0.23-0.34-0.38-0.74-0.46-1.18c-0.07-0.41-0.07-0.82,0.02-1.22
			s0.24-0.77,0.45-1.1c0.21-0.33,0.49-0.61,0.83-0.84s0.72-0.39,1.16-0.46c0.38-0.07,0.76-0.06,1.14,0.04
			c0.38,0.09,0.73,0.25,1.05,0.47c0.32,0.22,0.59,0.5,0.82,0.83s0.39,0.7,0.48,1.1l0.02,0.12c0.07,0.4,0.07,0.81-0.02,1.21
			s-0.24,0.76-0.45,1.09c-0.21,0.33-0.49,0.61-0.82,0.85c-0.33,0.24-0.71,0.39-1.13,0.47c-0.4,0.07-0.8,0.06-1.19-0.03
			s-0.75-0.25-1.07-0.48C387.6,316.52,387.32,316.23,387.09,315.89z"/>
	</g>
</g>
<g id="texte_backup" class="st1">
	<text transform="matrix(0.9567 -0.1704 0.1754 0.9845 369.9421 325.6873)" class="st4 st5 st6">idées</text>
	<text transform="matrix(0.9562 -0.1732 0.1782 0.984 372.307 340.4188)" class="st7 st5 st8">culture</text>
</g>
<g id="Calque_3">
</g>
<g id="Calque_1_1_" class="st1">
	<g class="st2">
		<path class="st9" d="M463.39,311.58c-0.7,0.12-1.19,0.48-1.48,1.06s-0.38,1.27-0.26,2.07l4.22-1.75
			C465.34,311.84,464.51,311.38,463.39,311.58z"/>
		<path class="st9" d="M449.59,313.9c0.26-1.24,0.73-2.2,1.38-2.92l-1.84,0.33L449.59,313.9z"/>
		<path class="st9" d="M369.64,307.46c0.6,0.25,1.27,0.31,2,0.18c0.45-0.08,0.86-0.23,1.24-0.45c0.56-0.33,1-0.77,1.31-1.33
			c0.32-0.56,0.42-1.17,0.3-1.85c-0.07-0.41-0.23-0.79-0.48-1.13c-0.23-0.31-0.52-0.58-0.85-0.81c-0.33-0.23-0.72-0.39-1.17-0.49
			c-0.45-0.1-0.92-0.11-1.4-0.03c-0.46,0.08-0.88,0.23-1.26,0.46c-0.56,0.34-1,0.78-1.31,1.32c-0.32,0.54-0.42,1.15-0.31,1.83
			c0.07,0.43,0.23,0.82,0.48,1.16C368.56,306.84,369.04,307.21,369.64,307.46z"/>
		<path class="st9" d="M378.17,319.49c-0.42,0.07-0.77-0.01-1.03-0.25c-0.27-0.24-0.44-0.61-0.53-1.11l-1.55-9.07l-6.37,1.09
			l1.63,9.51c0.18,1.07,0.48,1.95,0.91,2.65c0.57,0.95,1.31,1.65,2.22,2.09c0.27,0.13,0.56,0.23,0.86,0.3
			c0.39-0.37,0.81-0.71,1.28-1.02c0.86-0.55,1.86-0.93,2.98-1.13c0.63-0.11,1.19-0.13,1.72-0.11l-0.89-3.54
			C379,319.22,378.59,319.41,378.17,319.49z"/>
		<polygon class="st9" points="401.83,298.85 404.23,301.76 413.55,296.02 409.58,291.17 		"/>
		<path class="st9" d="M462.41,233.38h-83.53c-12.63,0-22.9,10.27-22.9,22.9v83.53c0,12.63,10.27,22.9,22.9,22.9h83.53
			c12.63,0,22.9-10.27,22.9-22.9v-83.53C485.31,243.65,475.03,233.38,462.41,233.38z M473.96,306.8l-7.71,1.4
			c0.17,0.06,0.34,0.12,0.5,0.2c0.55,0.28,1.05,0.62,1.5,1.03s0.84,0.88,1.19,1.42c0.53,0.83,0.9,1.86,1.12,3.08
			c0.05,0.26,0.07,0.5,0.07,0.73l-8.28,2.62c0.68,1.25,1.83,1.72,3.45,1.44c1.29-0.23,2.62-0.81,3.99-1.74l1.39,3.77
			c-1.57,1.08-3.43,1.81-5.56,2.19c-1.54,0.27-2.95,0.2-4.23-0.22s-2.36-1.1-3.24-2.04c-0.98-1.05-1.61-2.33-1.88-3.83
			c-0.21-1.18-0.17-2.27,0.1-3.29c0.28-1.01,0.74-1.91,1.37-2.7c0.41-0.51,0.93-0.96,1.49-1.38l-5.58,1.02l1.4,3.8
			c-1.84,0.33-3.15,0.78-3.93,1.36c-0.71,0.54-1,1.2-0.86,1.98l1.31,7.34l-5.96,1.06l-2.28-12.76l-0.16-0.88v-0.03l3.34-1.14
			c0.22-0.29,0.44-0.58,0.6-0.92c0.44-0.92,0.56-1.95,0.36-3.1c-0.14-0.8-0.4-1.48-0.78-2.04s-0.87-0.99-1.45-1.28
			c-0.58-0.3-1.2-0.51-1.85-0.63s-1.39-0.17-2.21-0.16c-0.38,0.03-0.74-0.03-1.09-0.18c-0.35-0.14-0.55-0.36-0.6-0.65
			c-0.07-0.41,0.49-0.72,1.68-0.92c0.91-0.16,2.16-0.14,3.75,0.05l0.03-3.69c-1.59-0.45-3.33-0.52-5.23-0.19
			c-1.23,0.21-2.28,0.57-3.15,1.09s-1.52,1.21-1.96,2.09s-0.58,1.9-0.44,3.05c0.26,1.51,0.84,2.57,1.76,3.19s2.17,0.94,3.75,0.97
			c0.47,0.01,0.84,0.05,1.14,0.12c0.21,0.05,0.38,0.1,0.51,0.15c0.13,0.04,0.26,0.12,0.4,0.24c0.14,0.12,0.23,0.26,0.26,0.42
			c0.08,0.47-0.38,0.79-1.38,0.96c-0.46,0.08-0.97,0.12-1.53,0.13c-0.56,0-1,0-1.33-0.03c-0.33-0.02-0.83-0.07-1.5-0.13l-0.07,3.34
			l4.15-0.74l0.1,0.53l0.14,0.78l1.21,6.78c0.37,2.06-0.12,3.83-1.45,5.3c-1.21,1.34-2.83,2.18-4.88,2.55
			c-1.62,0.29-3.09,0.21-4.42-0.24c-1.33-0.45-2.4-1.19-3.22-2.21c-0.59-0.73-0.98-1.63-1.16-2.7l-1.25-7.02l-0.08-0.49l-0.11-0.58
			l5.83-1.04l0.1,0.56l0.08,0.44l1.3,7.28c0.09,0.5,0.34,0.87,0.75,1.12c0.42,0.25,0.88,0.33,1.4,0.23
			c0.48-0.09,0.86-0.32,1.14-0.71c0.28-0.39,0.38-0.82,0.3-1.29l-1.38-7.73l-2,0.36c0.34-0.19,0.68-0.38,0.99-0.59l-1.44-4.01
			c-1.47,0.98-2.88,1.58-4.25,1.82c-1.72,0.3-2.94-0.22-3.65-1.55l8.81-2.72c0-0.24-0.03-0.5-0.07-0.77
			c-0.22-1.29-0.61-2.38-1.16-3.27c-0.36-0.57-0.78-1.08-1.25-1.51c-0.47-0.44-1-0.8-1.59-1.1c-0.58-0.3-1.24-0.49-1.96-0.58
			c-0.73-0.09-1.49-0.07-2.29,0.07c-1.12,0.19-2.13,0.56-3.04,1.11s-1.68,1.2-2.29,1.95c-0.67,0.83-1.16,1.78-1.47,2.86
			c-0.3,1.08-0.35,2.24-0.13,3.49c0.08,0.46,0.2,0.89,0.34,1.31l0.68-0.12l0.39,2.19c0.17,0.24,0.35,0.48,0.56,0.7
			c0.79,0.86,1.76,1.5,2.87,1.96l0.4-0.07l0.04,0.25c0.04,0.01,0.07,0.03,0.11,0.04c0.21,0.07,0.42,0.11,0.63,0.17l-0.69,0.12
			l0.52,2.92l-3.26,0.58l0.9,5.02c0.09,0.5,0.32,0.84,0.69,1.03s0.83,0.24,1.37,0.14c0.43-0.08,0.85-0.27,1.24-0.56l0.93,3.91
			c-1.17,0.88-2.54,1.45-4.08,1.73c-1.18,0.21-2.2,0.11-3.07-0.3c-0.87-0.41-1.57-1.07-2.11-1.97c-0.39-0.66-0.68-1.49-0.86-2.5
			l-0.94-5.45l-1.79,0.32l-0.42-2.32l-0.1-0.56l-0.11-0.62l2.24-0.4l1.23-4.29l-0.05-0.14c-1.46,0.98-2.88,1.58-4.25,1.82
			c-1.72,0.3-2.94-0.22-3.65-1.55l8.81-2.72c0-0.24-0.02-0.5-0.07-0.77c-0.22-1.29-0.61-2.38-1.17-3.27
			c-0.36-0.57-0.78-1.08-1.25-1.52s-1-0.8-1.58-1.1c-0.58-0.3-1.24-0.49-1.97-0.59c-0.73-0.09-1.49-0.07-2.29,0.07
			c-1.12,0.19-2.13,0.56-3.04,1.11s-1.68,1.2-2.29,1.95c-0.67,0.83-1.16,1.78-1.47,2.86c-0.3,1.08-0.35,2.24-0.14,3.49
			c0.14,0.81,0.38,1.56,0.71,2.24l5.67-1.9l1.07,5.99l0.06,0.33l1.35,7.57c0.09,0.51,0.32,0.85,0.68,1.04
			c0.37,0.19,0.82,0.23,1.38,0.13c0.42-0.08,0.84-0.26,1.24-0.56l0.93,3.91c-1.17,0.88-2.53,1.45-4.08,1.73
			c-1.18,0.21-2.2,0.11-3.07-0.3c-0.87-0.41-1.57-1.07-2.11-1.97c-0.39-0.66-0.68-1.49-0.86-2.5l-1.48-8.29l-2.14,0.39l-3.54-20.64
			l-6.18,2.03l1.3,7.57c-1.38-2-3.21-2.8-5.49-2.41c-1.89,0.32-3.43,1.33-4.63,3.03c-1.29,1.82-1.73,3.89-1.34,6.21
			c0.4,2.31,1.51,4.11,3.33,5.39c0.49,0.35,0.98,0.61,1.48,0.83l5.1-0.91l0.12,0.7l0.05,0.3l1.3,7.29c0.09,0.5,0.34,0.87,0.75,1.12
			c0.42,0.25,0.88,0.33,1.4,0.24c0.48-0.09,0.86-0.32,1.14-0.71c0.28-0.39,0.38-0.82,0.3-1.29l-1.35-7.56l-0.01-0.04l-0.12-0.68
			l5.72-1.02l0.12,0.67l0.02,0.1l1.31,7.33c0.37,2.06-0.11,3.83-1.45,5.3c-1.21,1.34-2.83,2.19-4.87,2.55
			c-1.62,0.29-3.1,0.21-4.42-0.23c-1.33-0.45-2.4-1.19-3.22-2.22c-0.59-0.73-0.98-1.63-1.17-2.7l-1.31-7.38l-1.62,0.29l0.12,3.82
			c-1.12-0.13-2.1-0.12-2.92,0.02c-0.88,0.16-1.53,0.55-1.96,1.18s-0.56,1.39-0.4,2.28c0.16,0.9,0.56,1.57,1.19,2.02
			c0.63,0.45,1.4,0.59,2.28,0.44c0.82-0.15,1.7-0.47,2.63-0.97l1.29,3.95c-0.68,0.5-1.34,0.91-1.98,1.24
			c-0.64,0.32-1.37,0.56-2.2,0.71c-1.73,0.31-3.28,0.17-4.66-0.43s-2.5-1.51-3.35-2.74c-0.61-0.88-1.02-1.92-1.23-3.13
			c-0.14-0.79-0.17-1.56-0.08-2.31c0.09-0.75,0.25-1.42,0.5-2.01s0.56-1.14,0.95-1.66c0.19-0.26,0.43-0.49,0.65-0.73l-6.77,1.23
			v-69.9c0-6.37,5.18-11.56,11.56-11.56h83.53c6.37,0,11.55,5.18,11.55,11.56v50.46H473.96z M423.63,307.25
			c-0.12-0.85-0.02-1.58,0.3-2.19c0.31-0.62,0.84-0.99,1.58-1.12c1.19-0.2,2.06,0.29,2.61,1.49L423.63,307.25z M406.94,310.11
			c-0.12-0.85-0.02-1.58,0.3-2.19c0.31-0.62,0.84-0.99,1.58-1.12c1.19-0.21,2.06,0.29,2.61,1.48L406.94,310.11z M392.24,321.24
			c0.72-0.73,1.22-1.63,1.52-2.7l0.47,2.75l-2.62,0.48C391.84,321.61,392.05,321.44,392.24,321.24z M390.5,317.32
			c-0.41,0.07-0.81,0.06-1.2-0.04c-0.57-0.15-1.07-0.44-1.5-0.85c-0.43-0.42-0.7-0.94-0.81-1.59c-0.07-0.41-0.06-0.81,0.04-1.2
			c0.14-0.57,0.42-1.07,0.84-1.5c0.42-0.43,0.95-0.7,1.61-0.81c0.38-0.06,0.76-0.05,1.14,0.05c0.56,0.14,1.05,0.4,1.47,0.8
			c0.43,0.4,0.71,0.91,0.84,1.52l0.02,0.12c0.07,0.4,0.06,0.8-0.04,1.19c-0.14,0.57-0.42,1.07-0.83,1.5
			C391.67,316.94,391.14,317.21,390.5,317.32z"/>
	</g>
</g>
</svg>
