<?xml version="1.0" encoding="utf-8"?>
<!-- Generator: Adobe Illustrator 24.2.3, SVG Export Plug-In . SVG Version: 6.00 Build 0)  -->
<svg version="1.1" id="Calque_1" xmlns="http://www.w3.org/2000/svg" xmlns:xlink="http://www.w3.org/1999/xlink" x="0px" y="0px"
	 viewBox="0 0 100 125" style="enable-background:new 0 0 100 125;" xml:space="preserve">
<style type="text/css">
	.st0{fill:#FFFFFF;}
</style>
<path class="st0" d="M43.8,88c0-3.6,0-7.1,0-10.5c-2.2-0.2-4.3-0.4-6.4-0.7c-6.8-1-13.5-2.5-19.6-6c-2.1-1.2-4.1-2.7-5.6-4.7
	c-3.8-4.8-3.5-10.9,0.7-15.4c2.8-2.9,6.2-4.7,9.9-6.2c5.8-2.3,11.9-3.4,18-4c5.9-0.6,11.8-0.7,17.7-0.2c7.9,0.7,15.7,2,22.9,5.5
	c2.9,1.4,5.5,3.1,7.6,5.7c3.7,4.6,3.6,10.6-0.4,15c-2,2.3-4.4,3.9-7.1,5.2c-3.3,1.6-9.4,3.7-12.1,4c0-0.3,0-0.6,0-0.9
	c0-2.9,0-5.8,0-8.8c0-0.7,0.2-0.9,0.8-1.1c2.7-0.7,5.4-1.6,7.9-3.1c1-0.6,1.9-1.4,2.8-2.2c0.6-0.5,0.6-1.2,0-1.8
	c-0.7-0.7-1.4-1.3-2.3-1.8c-3.6-2.2-7.7-3.4-11.8-4.2c-8.6-1.8-17.2-2-25.9-1c-5.4,0.6-10.7,1.6-15.7,3.9c-1.6,0.7-3.1,1.7-4.5,2.7
	c-1.3,1-1.3,1.8,0,2.9c2,1.7,4.4,2.7,6.9,3.6c5.1,1.8,10.5,2.7,16,3.2c0-3.3,0-6.6,0-10.1c6.7,5.2,13.3,10.4,20,15.5
	C57,77.7,50.5,82.8,43.8,88z"/>
</svg>
