<?xml version="1.0" encoding="utf-8"?>
<!-- Generator: Adobe Illustrator 24.2.3, SVG Export Plug-In . SVG Version: 6.00 Build 0)  -->
<svg version="1.1" id="Calque_1" xmlns="http://www.w3.org/2000/svg" xmlns:xlink="http://www.w3.org/1999/xlink" x="0px" y="0px"
	 viewBox="0 0 100 125" style="enable-background:new 0 0 100 125;" xml:space="preserve">
<style type="text/css">
	.st0{fill:#FFFFFF;}
</style>
<g id="NJFlPW.tif">
	<g>
		<path class="st0" d="M0,60.4c0-0.1,0-0.2,0-0.3c0.2-0.4,0.4-0.9,0.6-1.3c3.3-8.9,6.5-17.8,9.9-26.7c0.7-1.9,1-4,3.3-5.3
			c9.2-5,18.2-10.4,27.3-15.5c0.7-0.4,1.7-0.5,2.6-0.5c1.1,0,2.3,0.4,3.4,0.6c6.6,1.1,13.2,2.2,19.8,3.3c2.7,0.4,5.4,0.9,8.1,1.2
			c2,0.2,2.9,1.8,4.1,3.1c4.1,4.8,8.2,9.6,12.4,14.4c2.6,3,5.3,6,7.9,9c0,11.5,0,23,0,34.4c-2.1,2.5-4.3,4.9-6.4,7.4
			c-5,6-10,12-15,18c-0.5,0.6-1.1,1.2-1.7,1.4c-4,0.8-8,1.5-12,2.2c-6.1,1.1-12.1,2.2-18.2,3.2c-1.6,0.3-3.3,1-5-0.1
			c-2.3-1.4-4.7-2.7-7.1-4.1c-7-3.9-14-7.9-21-11.8c-0.5-0.3-1-0.7-1.2-1.2C9.2,84.7,6.6,77.7,4,70.6C2.7,67.2,1.3,63.8,0,60.4z
			 M88.2,71.7C82,63.7,76,56.1,69.8,48.2c-3.6,8-7,15.7-10.5,23.5C69.1,71.7,78.4,71.7,88.2,71.7z M46.7,74.1
			c-6.1-6.1-12-12-18.1-18c-2.6,9.2-5.3,18.4-8,28C29.6,80.6,38.2,77.3,46.7,74.1z M62.8,45.9c-9.6,1.7-18.8,3.4-27.8,5
			c5.9,5.9,11.8,11.7,17.7,17.6C56,61.2,59.3,53.8,62.8,45.9z M33.3,43.8c9.6-1.8,18.8-3.4,28.3-5.1c-5.9-6.1-11.5-11.9-17.4-18
			C40.5,28.5,37,35.9,33.3,43.8z M61.7,79.1c4.6,5.3,8.9,10.3,13.2,15.4c4.4-5.2,8.5-10.2,12.9-15.4C79,79.1,70.6,79.1,61.7,79.1z
			 M47.7,81.6c-8.2,3.1-15.9,6.1-24,9.2c6,3.4,11.6,6.5,17.4,9.8C43.2,94.2,45.4,88.1,47.7,81.6z M55,82.5
			c-2.2,6.4-4.3,12.3-6.4,18.6c6.7-1.2,12.8-2.3,19.4-3.5C63.7,92.6,59.5,87.8,55,82.5z M91.6,64.1c0.1-0.1,0.2-0.1,0.4-0.2
			c0-5.5,0-11.1,0-16.8c-4.8-0.5-9.6-1-14.8-1.6C82.2,52.1,86.9,58.1,91.6,64.1z M21,56.1c-0.1-0.1-0.3-0.1-0.4-0.2
			c-3.8,1.9-7.7,3.8-11.5,5.8c-0.2,0.1-0.3,1-0.2,1.4c0.9,2.7,2,5.4,3,8.1c0.8,2.2,1.7,4.5,2.5,6.7c0.1,0,0.3,0,0.4,0
			C16.9,70.5,18.9,63.3,21,56.1z M70.3,22.6c-5.6-0.9-10.9-1.8-16.2-2.7C54,20,54,20.2,53.9,20.3c4.3,4.4,8.6,8.9,13.2,13.6
			C68.2,30,69.2,26.4,70.3,22.6z M26.4,41.2c2.8-5.9,5.4-11.5,8.1-17.1c-0.1-0.1-0.3-0.2-0.4-0.3c-4.4,2.5-8.7,5-13.1,7.5
			c-0.2,0.1-0.4,0.9-0.3,1.1C22.5,35.2,24.4,38,26.4,41.2z M86.4,39.3c0.1-0.1,0.1-0.3,0.2-0.4c-3.2-3.7-6.4-7.5-9.9-11.5
			c-1,3.7-2,7-3,10.5C78,38.4,82.2,38.8,86.4,39.3z M21.6,47.2c-1.9-2.9-3.7-5.7-5.7-8.7c-1.8,4.8-3.4,9.2-5,13.6
			c0.1,0.1,0.2,0.2,0.4,0.3C14.7,50.7,18.1,49,21.6,47.2z"/>
	</g>
</g>
</svg>
